<?xml version="1.0" standalone="yes"?>

<svg version="1.1" viewBox="0.0 0.0 1071.3753280839894 476.93438320209975" fill="none" stroke="none" stroke-linecap="square" stroke-miterlimit="10" xmlns="http://www.w3.org/2000/svg" xmlns:xlink="http://www.w3.org/1999/xlink"><clipPath id="p.0"><path d="m0 0l1071.3754 0l0 476.9344l-1071.3754 0l0 -476.9344z" clip-rule="nonzero"></path></clipPath><g clip-path="url(#p.0)"><path fill="#000000" fill-opacity="0.0" d="m0 0l1071.3754 0l0 476.9344l-1071.3754 0z" fill-rule="nonzero"></path><path fill="#000000" fill-opacity="0.0" d="m549.3727 82.34801l0 0c0 -42.919613 34.793274 -77.71284 77.71289 -77.71284l357.64514 0c20.610718 0 40.37732 8.18758 54.951294 22.761564c14.573975 14.573984 22.761597 34.340553 22.761597 54.95127l0 310.84204c0 42.919617 -34.793213 77.71286 -77.71289 77.71286l-357.64514 0c-42.919617 0 -77.71289 -34.793243 -77.71289 -77.71286z" fill-rule="nonzero"></path><path stroke="#ff9900" stroke-width="2.0" stroke-linejoin="round" stroke-linecap="butt" d="m549.3727 82.34801l0 0c0 -42.919613 34.793274 -77.71284 77.71289 -77.71284l357.64514 0c20.610718 0 40.37732 8.18758 54.951294 22.761564c14.573975 14.573984 22.761597 34.340553 22.761597 54.95127l0 310.84204c0 42.919617 -34.793213 77.71286 -77.71289 77.71286l-357.64514 0c-42.919617 0 -77.71289 -34.793243 -77.71289 -77.71286z" fill-rule="nonzero"></path><path fill="#000000" fill-opacity="0.0" d="m664.0026 46.72966l0 0c0 -19.977924 18.218811 -36.17323 40.692932 -36.17323l0 0c22.47406 0 40.69287 16.195305 40.69287 36.17323l0 0c0 19.97792 -18.218811 36.173225 -40.69287 36.173225l0 0c-22.474121 0 -40.692932 -16.195305 -40.692932 -36.173225z" fill-rule="nonzero"></path><path stroke="#000000" stroke-width="1.0" stroke-linejoin="round" stroke-linecap="butt" d="m664.0026 46.72966l0 0c0 -19.977924 18.218811 -36.17323 40.692932 -36.17323l0 0c22.47406 0 40.69287 16.195305 40.69287 36.17323l0 0c0 19.97792 -18.218811 36.173225 -40.69287 36.173225l0 0c-22.474121 0 -40.692932 -16.195305 -40.692932 -36.173225z" fill-rule="nonzero"></path><path fill="#000000" fill-opacity="0.0" d="m8.089239 82.34801l0 0c0 -42.919613 34.79322 -77.71284 77.71284 -77.71284l357.64514 0c20.610748 0 40.37732 8.18758 54.951294 22.761564c14.574005 14.573984 22.761566 34.340546 22.761566 54.95127l0 310.84204c0 42.919617 -34.793243 77.71283 -77.71286 77.71283l-357.64514 0l0 0c-42.919617 0 -77.71284 -34.793213 -77.71284 -77.71283z" fill-rule="nonzero"></path><path stroke="#ff9900" stroke-width="2.0" stroke-linejoin="round" stroke-linecap="butt" d="m8.089239 82.34801l0 0c0 -42.919613 34.79322 -77.71284 77.71284 -77.71284l357.64514 0c20.610748 0 40.37732 8.18758 54.951294 22.761564c14.574005 14.573984 22.761566 34.340546 22.761566 54.95127l0 310.84204c0 42.919617 -34.793243 77.71283 -77.71286 77.71283l-357.64514 0l0 0c-42.919617 0 -77.71284 -34.793213 -77.71284 -77.71283z" fill-rule="nonzero"></path><path fill="#f6b26b" d="m112.28346 344.25723l106.48819 0l0 54.70865l-106.48819 0z" fill-rule="nonzero"></path><path stroke="#000000" stroke-width="1.0" stroke-linejoin="round" stroke-linecap="butt" d="m112.28346 344.25723l106.48819 0l0 54.70865l-106.48819 0z" fill-rule="nonzero"></path><path fill="#000000" d="m126.64284 378.53156l-5.28125 -13.59375l1.953125 0l3.53125 9.875q0.4375 1.1875 0.71875 2.21875q0.3125 -1.109375 0.734375 -2.21875l3.671875 -9.875l1.84375 0l-5.328125 13.59375l-1.84375 0zm8.349823 -11.6875l0 -1.90625l1.671875 0l0 1.90625l-1.671875 0zm0 11.6875l0 -9.859375l1.671875 0l0 9.859375l-1.671875 0zm10.519821 0l0 -1.25q-0.9375 1.46875 -2.75 1.46875q-1.171875 0 -2.171875 -0.640625q-0.984375 -0.65625 -1.53125 -1.8125q-0.53125 -1.171875 -0.53125 -2.6875q0 -1.46875 0.484375 -2.671875q0.5 -1.203125 1.46875 -1.84375q0.984375 -0.640625 2.203125 -0.640625q0.890625 0 1.578125 0.375q0.703125 0.375 1.140625 0.984375l0 -4.875l1.65625 0l0 13.59375l-1.546875 0zm-5.28125 -4.921875q0 1.890625 0.796875 2.828125q0.8125 0.9375 1.890625 0.9375q1.09375 0 1.859375 -0.890625q0.765625 -0.890625 0.765625 -2.734375q0 -2.015625 -0.78125 -2.953125q-0.78125 -0.953125 -1.921875 -0.953125q-1.109375 0 -1.859375 0.90625q-0.75 0.90625 -0.75 2.859375zm8.625717 0.84375l0 -1.6875l5.125 0l0 1.6875l-5.125 0zm6.993927 4.078125l0 -13.59375l1.796875 0l0 11.984375l6.703125 0l0 1.609375l-8.5 0zm9.844467 -4.375l1.6875 -0.140625q0.125 1.015625 0.5625 1.671875q0.4375 0.65625 1.359375 1.0625q0.9375 0.40625 2.09375 0.40625q1.03125 0 1.8125 -0.3125q0.796875 -0.3125 1.1875 -0.84375q0.390625 -0.53125 0.390625 -1.15625q0 -0.640625 -0.375 -1.109375q-0.375 -0.484375 -1.234375 -0.8125q-0.546875 -0.21875 -2.421875 -0.65625q-1.875 -0.453125 -2.625 -0.859375q-0.96875 -0.515625 -1.453125 -1.265625q-0.46875 -0.75 -0.46875 -1.6875q0 -1.03125 0.578125 -1.921875q0.59375 -0.90625 1.703125 -1.359375q1.125 -0.46875 2.5 -0.46875q1.515625 0 2.671875 0.484375q1.15625 0.484375 1.765625 1.4375q0.625 0.9375 0.671875 2.140625l-1.71875 0.125q-0.140625 -1.28125 -0.953125 -1.9375q-0.796875 -0.671875 -2.359375 -0.671875q-1.625 0 -2.375 0.609375q-0.75 0.59375 -0.75 1.4375q0 0.734375 0.53125 1.203125q0.515625 0.46875 2.703125 0.96875q2.203125 0.5 3.015625 0.875q1.1875 0.546875 1.75 1.390625q0.578125 0.828125 0.578125 1.921875q0 1.09375 -0.625 2.0625q-0.625 0.953125 -1.796875 1.484375q-1.15625 0.53125 -2.609375 0.53125q-1.84375 0 -3.09375 -0.53125q-1.25 -0.546875 -1.96875 -1.625q-0.703125 -1.078125 -0.734375 -2.453125zm16.506073 4.375l0 -12.0l-4.46875 0l0 -1.59375l10.765625 0l0 1.59375l-4.5 0l0 12.0l-1.796875 0zm7.880356 0l0 -13.59375l2.71875 0l3.21875 9.625q0.4375 1.34375 0.640625 2.015625q0.234375 -0.75 0.734375 -2.1875l3.25 -9.453125l2.421875 0l0 13.59375l-1.734375 0l0 -11.390625l-3.953125 11.390625l-1.625 0l-3.9375 -11.578125l0 11.578125l-1.734375 0z" fill-rule="nonzero"></path><path fill="#f6b26b" d="m232.67717 340.19684l10.425186 -41.700775l85.63779 0l10.425201 41.700775z" fill-rule="nonzero"></path><path stroke="#000000" stroke-width="1.0" stroke-linejoin="round" stroke-linecap="butt" d="m232.67717 340.19684l10.425186 -41.700775l85.63779 0l10.425201 41.700775z" fill-rule="nonzero"></path><path fill="#000000" d="m249.48668 323.2523l1.6875 -0.140625q0.125 1.015625 0.5625 1.671875q0.4375 0.65625 1.359375 1.0625q0.9375 0.40625 2.09375 0.40625q1.0312347 0 1.8124847 -0.3125q0.796875 -0.3125 1.1875 -0.84375q0.390625 -0.53125 0.390625 -1.15625q0 -0.640625 -0.375 -1.109375q-0.375 -0.484375 -1.234375 -0.8125q-0.546875 -0.21875 -2.4218597 -0.65625q-1.875 -0.453125 -2.625 -0.859375q-0.96875 -0.515625 -1.453125 -1.265625q-0.46875 -0.75 -0.46875 -1.6875q0 -1.03125 0.578125 -1.921875q0.59375 -0.90625 1.703125 -1.359375q1.125 -0.46875 2.5 -0.46875q1.5156097 0 2.6718597 0.484375q1.15625 0.484375 1.765625 1.4375q0.625 0.9375 0.671875 2.140625l-1.71875 0.125q-0.140625 -1.28125 -0.953125 -1.9375q-0.796875 -0.671875 -2.3593597 -0.671875q-1.625 0 -2.375 0.609375q-0.75 0.59375 -0.75 1.4375q0 0.734375 0.53125 1.203125q0.515625 0.46875 2.703125 0.96875q2.2031097 0.5 3.0156097 0.875q1.1875 0.546875 1.75 1.390625q0.578125 0.828125 0.578125 1.921875q0 1.09375 -0.625 2.0625q-0.625 0.953125 -1.796875 1.484375q-1.15625 0.53125 -2.6093597 0.53125q-1.84375 0 -3.09375 -0.53125q-1.25 -0.546875 -1.96875 -1.625q-0.703125 -1.078125 -0.734375 -2.453125zm12.209183 -0.546875q0 -2.734375 1.53125 -4.0625q1.265625 -1.09375 3.09375 -1.09375q2.03125 0 3.3125 1.34375q1.296875 1.328125 1.296875 3.671875q0 1.90625 -0.578125 3.0q-0.5625 1.078125 -1.65625 1.6875q-1.078125 0.59375 -2.375 0.59375q-2.0625 0 -3.34375 -1.328125q-1.28125 -1.328125 -1.28125 -3.8125zm1.71875 0q0 1.890625 0.828125 2.828125q0.828125 0.9375 2.078125 0.9375q1.25 0 2.0625 -0.9375q0.828125 -0.953125 0.828125 -2.890625q0 -1.828125 -0.828125 -2.765625q-0.828125 -0.9375 -2.0625 -0.9375q-1.25 0 -2.078125 0.9375q-0.828125 0.9375 -0.828125 2.828125zm9.688232 4.921875l0 -8.546875l-1.484375 0l0 -1.3125l1.484375 0l0 -1.046875q0 -0.984375 0.171875 -1.46875q0.234375 -0.65625 0.84375 -1.046875q0.609375 -0.40625 1.703125 -0.40625q0.703125 0 1.5625 0.15625l-0.25 1.46875q-0.515625 -0.09375 -0.984375 -0.09375q-0.765625 0 -1.078125 0.328125q-0.3125 0.3125 -0.3125 1.203125l0 0.90625l1.921875 0l0 1.3125l-1.921875 0l0 8.546875l-1.65625 0zm8.433289 -1.5l0.234375 1.484375q-0.703125 0.140625 -1.265625 0.140625q-0.90625 0 -1.40625 -0.28125q-0.5 -0.296875 -0.703125 -0.75q-0.203125 -0.46875 -0.203125 -1.984375l0 -5.65625l-1.234375 0l0 -1.3125l1.234375 0l0 -2.4375l1.65625 -1.0l0 3.4375l1.6875 0l0 1.3125l-1.6875 0l0 5.75q0 0.71875 0.078125 0.921875q0.09375 0.203125 0.296875 0.328125q0.203125 0.125 0.578125 0.125q0.265625 0 0.734375 -0.078125zm1.6833191 1.5l0 -13.59375l2.71875 0l3.21875 9.625q0.4375 1.34375 0.640625 2.015625q0.234375 -0.75 0.734375 -2.1875l3.25 -9.453125l2.421875 0l0 13.59375l-1.734375 0l0 -11.390625l-3.953125 11.390625l-1.625 0l-3.9375 -11.578125l0 11.578125l-1.734375 0zm21.822052 -1.21875q-0.9375 0.796875 -1.796875 1.125q-0.859375 0.3125 -1.84375 0.3125q-1.609375 0 -2.484375 -0.78125q-0.875 -0.796875 -0.875 -2.03125q0 -0.734375 0.328125 -1.328125q0.328125 -0.59375 0.859375 -0.953125q0.53125 -0.359375 1.203125 -0.546875q0.5 -0.140625 1.484375 -0.25q2.03125 -0.25 2.984375 -0.578125q0 -0.34375 0 -0.4375q0 -1.015625 -0.46875 -1.4375q-0.640625 -0.5625 -1.90625 -0.5625q-1.171875 0 -1.734375 0.40625q-0.5625 0.40625 -0.828125 1.46875l-1.640625 -0.234375q0.234375 -1.046875 0.734375 -1.6875q0.515625 -0.640625 1.46875 -0.984375q0.96875 -0.359375 2.25 -0.359375q1.265625 0 2.046875 0.296875q0.78125 0.296875 1.15625 0.75q0.375 0.453125 0.515625 1.140625q0.09375 0.421875 0.09375 1.53125l0 2.234375q0 2.328125 0.09375 2.953125q0.109375 0.609375 0.4375 1.171875l-1.75 0q-0.265625 -0.515625 -0.328125 -1.21875zm-0.140625 -3.71875q-0.90625 0.359375 -2.734375 0.625q-1.03125 0.140625 -1.453125 0.328125q-0.421875 0.1875 -0.65625 0.546875q-0.234375 0.359375 -0.234375 0.796875q0 0.671875 0.5 1.125q0.515625 0.4375 1.484375 0.4375q0.96875 0 1.71875 -0.421875q0.75 -0.4375 1.109375 -1.15625q0.265625 -0.578125 0.265625 -1.671875l0 -0.609375zm2.969452 4.9375l3.59375 -5.125l-3.328125 -4.734375l2.09375 0l1.515625 2.3125q0.421875 0.65625 0.671875 1.109375q0.421875 -0.609375 0.765625 -1.09375l1.65625 -2.328125l1.984375 0l-3.390625 4.640625l3.65625 5.21875l-2.046875 0l-2.03125 -3.0625l-0.53125 -0.828125l-2.59375 3.890625l-2.015625 0z" fill-rule="nonzero"></path><path fill="#6aa84f" d="m112.28346 198.4357l106.48819 0l0 54.708664l-106.48819 0z" fill-rule="nonzero"></path><path stroke="#000000" stroke-width="1.0" stroke-linejoin="round" stroke-linecap="butt" d="m112.28346 198.4357l106.48819 0l0 54.708664l-106.48819 0z" fill-rule="nonzero"></path><path fill="#000000" d="m153.95993 232.71002l0 -13.59375l1.796875 0l0 11.984375l6.703125 0l0 1.609375l-8.5 0zm10.391342 0l0 -13.59375l2.71875 0l3.21875 9.625q0.4375 1.34375 0.640625 2.015625q0.234375 -0.75 0.734375 -2.1875l3.25 -9.453125l2.421875 0l0 13.59375l-1.734375 0l0 -11.390625l-3.953125 11.390625l-1.625 0l-3.9375 -11.578125l0 11.578125l-1.734375 0z" fill-rule="nonzero"></path><path fill="#cfe2f3" d="m263.68503 208.80331l0 0c0 -4.6908875 3.8027344 -8.493607 8.493622 -8.493607l99.20175 0c2.252655 0 4.413025 0.89486694 6.00589 2.4877167c1.592865 1.592865 2.487732 3.7532501 2.487732 6.00589l0 33.97342c0 4.6908875 -3.8027344 8.493607 -8.493622 8.493607l-99.20175 0c-4.6908875 0 -8.493622 -3.802719 -8.493622 -8.493607z" fill-rule="nonzero"></path><path stroke="#000000" stroke-width="1.0" stroke-linejoin="round" stroke-linecap="butt" d="m263.68503 208.80331l0 0c0 -4.6908875 3.8027344 -8.493607 8.493622 -8.493607l99.20175 0c2.252655 0 4.413025 0.89486694 6.00589 2.4877167c1.592865 1.592865 2.487732 3.7532501 2.487732 6.00589l0 33.97342c0 4.6908875 -3.8027344 8.493607 -8.493622 8.493607l-99.20175 0c-4.6908875 0 -8.493622 -3.802719 -8.493622 -8.493607z" fill-rule="nonzero"></path><path fill="#000000" d="m276.64148 232.99002l0 -14.3125l6.078125 0q2.296875 0 3.328125 0.390625q1.046875 0.375 1.671875 1.359375q0.625 0.984375 0.625 2.265625q0 1.609375 -0.953125 2.65625q-0.9375 1.046875 -2.828125 1.328125q0.9375 0.546875 1.546875 1.203125q0.609375 0.640625 1.65625 2.3125l1.75 2.796875l-3.46875 0l-2.078125 -3.109375q-1.125 -1.671875 -1.53125 -2.109375q-0.40625 -0.4375 -0.875 -0.59375q-0.453125 -0.171875 -1.453125 -0.171875l-0.578125 0l0 5.984375l-2.890625 0zm2.890625 -8.265625l2.140625 0q2.078125 0 2.59375 -0.171875q0.515625 -0.171875 0.8125 -0.59375q0.296875 -0.4375 0.296875 -1.09375q0 -0.71875 -0.390625 -1.15625q-0.390625 -0.453125 -1.09375 -0.5625q-0.34375 -0.046875 -2.109375 -0.046875l-2.25 0l0 3.625zm17.521484 4.96875l2.734375 0.453125q-0.515625 1.5 -1.65625 2.296875q-1.140625 0.78125 -2.84375 0.78125q-2.71875 0 -4.015625 -1.765625q-1.015625 -1.421875 -1.015625 -3.578125q0 -2.578125 1.34375 -4.03125q1.34375 -1.46875 3.40625 -1.46875q2.3125 0 3.640625 1.53125q1.34375 1.53125 1.296875 4.6875l-6.875 0q0.03125 1.21875 0.65625 1.90625q0.640625 0.671875 1.578125 0.671875q0.65625 0 1.09375 -0.34375q0.4375 -0.359375 0.65625 -1.140625zm0.15625 -2.78125q-0.03125 -1.1875 -0.625 -1.796875q-0.578125 -0.625 -1.40625 -0.625q-0.90625 0 -1.484375 0.640625q-0.59375 0.65625 -0.578125 1.78125l4.09375 0zm4.654297 2.265625l0 -2.75l5.390625 0l0 2.75l-5.390625 0zm6.2539062 -0.84375l2.8125 -0.28125q0.265625 1.421875 1.03125 2.09375q0.78125 0.65625 2.09375 0.65625q1.40625 0 2.109375 -0.59375q0.703125 -0.59375 0.703125 -1.375q0 -0.515625 -0.296875 -0.859375q-0.296875 -0.359375 -1.03125 -0.625q-0.515625 -0.1875 -2.3125 -0.625q-2.328125 -0.578125 -3.265625 -1.421875q-1.328125 -1.1875 -1.328125 -2.875q0 -1.09375 0.625 -2.046875q0.625 -0.953125 1.78125 -1.453125q1.171875 -0.5 2.828125 -0.5q2.6875 0 4.046875 1.1875q1.375 1.171875 1.4375 3.15625l-2.890625 0.125q-0.1875 -1.109375 -0.796875 -1.59375q-0.609375 -0.484375 -1.828125 -0.484375q-1.265625 0 -1.96875 0.515625q-0.46875 0.34375 -0.46875 0.890625q0 0.515625 0.4375 0.875q0.546875 0.453125 2.65625 0.953125q2.109375 0.5 3.109375 1.03125q1.015625 0.53125 1.578125 1.453125q0.578125 0.921875 0.578125 2.28125q0 1.234375 -0.6875 2.3125q-0.671875 1.0625 -1.921875 1.59375q-1.25 0.515625 -3.125 0.515625q-2.703125 0 -4.171875 -1.25q-1.453125 -1.25 -1.734375 -3.65625zm23.105469 -2.65625l-2.703125 0.5q-0.140625 -0.8125 -0.625 -1.21875q-0.484375 -0.421875 -1.25 -0.421875q-1.03125 0 -1.640625 0.71875q-0.609375 0.703125 -0.609375 2.359375q0 1.84375 0.609375 2.609375q0.625 0.765625 1.671875 0.765625q0.78125 0 1.28125 -0.4375q0.5 -0.453125 0.703125 -1.53125l2.6875 0.453125q-0.40625 1.859375 -1.609375 2.8125q-1.1875 0.9375 -3.1875 0.9375q-2.28125 0 -3.640625 -1.4375q-1.34375 -1.4375 -1.34375 -3.96875q0 -2.578125 1.359375 -4.0q1.359375 -1.4375 3.671875 -1.4375q1.890625 0 3.0 0.828125q1.125 0.8125 1.625 2.46875zm1.4355469 1.984375q0 -1.375 0.671875 -2.65625q0.6875 -1.28125 1.921875 -1.953125q1.234375 -0.671875 2.75 -0.671875q2.359375 0 3.859375 1.53125q1.5 1.53125 1.5 3.859375q0 2.359375 -1.515625 3.90625q-1.515625 1.546875 -3.828125 1.546875q-1.421875 0 -2.71875 -0.640625q-1.28125 -0.65625 -1.96875 -1.890625q-0.671875 -1.25 -0.671875 -3.03125zm2.8125 0.140625q0 1.546875 0.734375 2.375q0.734375 0.8125 1.8125 0.8125q1.078125 0 1.796875 -0.8125q0.734375 -0.828125 0.734375 -2.390625q0 -1.53125 -0.734375 -2.34375q-0.71875 -0.828125 -1.796875 -0.828125q-1.078125 0 -1.8125 0.828125q-0.734375 0.8125 -0.734375 2.359375zm12.669922 5.1875l-2.75 0l0 -10.375l2.5625 0l0 1.484375q0.640625 -1.046875 1.15625 -1.375q0.53125 -0.34375 1.203125 -0.34375q0.9375 0 1.796875 0.515625l-0.84375 2.390625q-0.6875 -0.4375 -1.28125 -0.4375q-0.578125 0 -0.984375 0.3125q-0.40625 0.3125 -0.640625 1.15625q-0.21875 0.828125 -0.21875 3.46875l0 3.203125zm11.158203 -3.296875l2.734375 0.453125q-0.515625 1.5 -1.65625 2.296875q-1.140625 0.78125 -2.84375 0.78125q-2.71875 0 -4.015625 -1.765625q-1.015625 -1.421875 -1.015625 -3.578125q0 -2.578125 1.34375 -4.03125q1.34375 -1.46875 3.40625 -1.46875q2.3125 0 3.640625 1.53125q1.34375 1.53125 1.296875 4.6875l-6.875 0q0.03125 1.21875 0.65625 1.90625q0.640625 0.671875 1.578125 0.671875q0.65625 0 1.09375 -0.34375q0.4375 -0.359375 0.65625 -1.140625zm0.15625 -2.78125q-0.03125 -1.1875 -0.625 -1.796875q-0.578125 -0.625 -1.40625 -0.625q-0.90625 0 -1.484375 0.640625q-0.59375 0.65625 -0.578125 1.78125l4.09375 0z" fill-rule="nonzero"></path><path fill="#000000" fill-opacity="0.0" d="m218.77165 225.79002l44.913376 0" fill-rule="nonzero"></path><path stroke="#000000" stroke-width="1.0" stroke-linejoin="round" stroke-linecap="butt" d="m218.77165 225.79002l38.913376 0" fill-rule="evenodd"></path><path fill="#000000" stroke="#000000" stroke-width="1.0" stroke-linecap="butt" d="m257.68503 227.44176l4.5381165 -1.6517334l-4.5381165 -1.6517334z" fill-rule="evenodd"></path><path fill="#000000" fill-opacity="0.0" d="m285.92126 298.49606l0.06298828 -45.354324" fill-rule="nonzero"></path><path stroke="#000000" stroke-width="1.0" stroke-linejoin="round" stroke-linecap="butt" d="m285.92126 298.49606l0.054656982 -39.35434" fill-rule="evenodd"></path><path fill="#000000" stroke="#000000" stroke-width="1.0" stroke-linecap="butt" d="m287.62766 259.144l-1.6454468 -4.5403748l-1.65802 4.535797z" fill-rule="evenodd"></path><path fill="#ffe599" d="m291.44882 79.78215l0 0c0 -15.107376 13.579529 -27.354328 30.330719 -27.354328l0 0c16.75116 0 30.330688 12.246952 30.330688 27.354328l0 0c0 15.107384 -13.579529 27.354332 -30.330688 27.354332l0 0c-16.75119 0 -30.330719 -12.246948 -30.330719 -27.354332z" fill-rule="nonzero"></path><path stroke="#000000" stroke-width="1.0" stroke-linejoin="round" stroke-linecap="butt" d="m291.44882 79.78215l0 0c0 -15.107376 13.579529 -27.354328 30.330719 -27.354328l0 0c16.75116 0 30.330688 12.246952 30.330688 27.354328l0 0c0 15.107384 -13.579529 27.354332 -30.330688 27.354332l0 0c-16.75119 0 -30.330719 -12.246948 -30.330719 -27.354332z" fill-rule="nonzero"></path><path fill="#000000" d="m312.61353 75.869026l3.5 0l2.96875 8.84375l2.90625 -8.84375l3.421875 0l-4.40625 11.984375l-0.78125 2.171875q-0.4375 1.09375 -0.828125 1.65625q-0.390625 0.578125 -0.90625 0.9375q-0.5 0.359375 -1.25 0.546875q-0.734375 0.203125 -1.671875 0.203125q-0.953125 0 -1.875 -0.1875l-0.28125 -2.578125q0.765625 0.140625 1.390625 0.140625q1.140625 0 1.6875 -0.671875q0.5625 -0.671875 0.859375 -1.71875l-4.734375 -12.484375z" fill-rule="nonzero"></path><path fill="#000000" d="m330.74243 89.025276l0 1.75l-1.5 0l0 3.34375q0 1.015625 0.046875 1.1875q0.046875 0.15625 0.1875 0.265625q0.15625 0.109375 0.375 0.109375q0.3125 0 0.890625 -0.203125l0.1875 1.703125q-0.765625 0.328125 -1.734375 0.328125q-0.59375 0 -1.078125 -0.203125q-0.46875 -0.203125 -0.703125 -0.515625q-0.21875 -0.3125 -0.296875 -0.859375q-0.078125 -0.375 -0.078125 -1.546875l0 -3.609375l-1.0 0l0 -1.75l1.0 0l0 -1.65625l2.203125 -1.28125l0 2.9375l1.5 0z" fill-rule="nonzero"></path><path fill="#000000" fill-opacity="0.0" d="m288.2047 79.78215l0 0c0 -17.44698 15.031952 -31.59055 33.57483 -31.59055l0 0c8.904572 0 17.444458 3.3282814 23.740967 9.252659c6.2964783 5.9243774 9.833832 13.959557 9.833832 22.33789l0 0c0 17.446983 -15.031952 31.590553 -33.5748 31.590553l0 0c-18.542877 0 -33.57483 -14.14357 -33.57483 -31.590553z" fill-rule="nonzero"></path><path stroke="#000000" stroke-width="1.0" stroke-linejoin="round" stroke-linecap="butt" d="m288.2047 79.78215l0 0c0 -17.44698 15.031952 -31.59055 33.57483 -31.59055l0 0c8.904572 0 17.444458 3.3282814 23.740967 9.252659c6.2964783 5.9243774 9.833832 13.959557 9.833832 22.33789l0 0c0 17.446983 -15.031952 31.590553 -33.5748 31.590553l0 0c-18.542877 0 -33.57483 -14.14357 -33.57483 -31.590553z" fill-rule="nonzero"></path><path fill="#000000" fill-opacity="0.0" d="m321.77954 200.30971l0 -88.94488" fill-rule="nonzero"></path><path stroke="#000000" stroke-width="1.0" stroke-linejoin="round" stroke-linecap="butt" d="m321.77954 200.30971l0 -82.94488" fill-rule="evenodd"></path><path fill="#000000" stroke="#000000" stroke-width="1.0" stroke-linecap="butt" d="m323.43127 117.36483l-1.6517334 -4.538101l-1.6517334 4.538101z" fill-rule="evenodd"></path><path fill="#000000" fill-opacity="0.0" d="m15.748032 225.79002l96.53543 0" fill-rule="nonzero"></path><path stroke="#000000" stroke-width="1.0" stroke-linejoin="round" stroke-linecap="butt" stroke-dasharray="4.0,3.0" d="m15.748032 225.79002l90.53543 0" fill-rule="evenodd"></path><path fill="#000000" stroke="#000000" stroke-width="1.0" stroke-linecap="butt" d="m106.28346 227.44176l4.538101 -1.6517334l-4.538101 -1.6517334z" fill-rule="evenodd"></path><path fill="#000000" fill-opacity="0.0" d="m21.795275 372.43045l90.48819 -0.8189087" fill-rule="nonzero"></path><path stroke="#000000" stroke-width="1.0" stroke-linejoin="round" stroke-linecap="butt" stroke-dasharray="4.0,3.0" d="m21.795275 372.43045l84.48844 -0.7646179" fill-rule="evenodd"></path><path fill="#000000" stroke="#000000" stroke-width="1.0" stroke-linecap="butt" d="m106.29866 373.3175l4.5229645 -1.6927185l-4.552864 -1.6105957z" fill-rule="evenodd"></path><path fill="#000000" fill-opacity="0.0" d="m30.897638 110.7979l81.385826 114.99213" fill-rule="nonzero"></path><path stroke="#000000" stroke-width="1.0" stroke-linejoin="round" stroke-linecap="butt" stroke-dasharray="4.0,3.0" d="m30.897638 110.7979l77.919624 110.094635" fill-rule="evenodd"></path><path fill="#000000" stroke="#000000" stroke-width="1.0" stroke-linecap="butt" d="m107.46903 221.84674l3.9698868 2.7500153l-1.2734375 -4.658432z" fill-rule="evenodd"></path><path fill="#000000" fill-opacity="0.0" d="m22.897638 122.22572l89.385826 249.38582" fill-rule="nonzero"></path><path stroke="#000000" stroke-width="1.0" stroke-linejoin="round" stroke-linecap="butt" stroke-dasharray="4.0,3.0" d="m22.897638 122.22572l87.3614 243.73766" fill-rule="evenodd"></path><path fill="#000000" stroke="#000000" stroke-width="1.0" stroke-linecap="butt" d="m108.704155 366.5207l3.086052 3.7146912l0.0236969 -4.8292847z" fill-rule="evenodd"></path><path fill="#000000" fill-opacity="0.0" d="m355.35434 79.78215l114.61417 151.84251" fill-rule="nonzero"></path><path stroke="#000000" stroke-width="1.0" stroke-linejoin="round" stroke-linecap="butt" stroke-dasharray="4.0,3.0" d="m355.35434 79.78215l110.99942 147.05362" fill-rule="evenodd"></path><path fill="#000000" stroke="#000000" stroke-width="1.0" stroke-linecap="butt" d="m465.0354 227.83089l4.052368 2.6269684l-1.4157104 -4.6171722z" fill-rule="evenodd"></path><path fill="#000000" fill-opacity="0.0" d="m355.35434 79.78215l119.8425 293.82678" fill-rule="nonzero"></path><path stroke="#000000" stroke-width="1.0" stroke-linejoin="round" stroke-linecap="butt" stroke-dasharray="4.0,3.0" d="m355.35434 79.78215l117.57651 288.27112" fill-rule="evenodd"></path><path fill="#000000" stroke="#000000" stroke-width="1.0" stroke-linecap="butt" d="m471.40146 368.67706l3.2432861 3.5782166l-0.18444824 -4.8258057z" fill-rule="evenodd"></path><path fill="#f6b26b" d="m651.15094 354.5551l106.48816 0l0 54.70868l-106.48816 0z" fill-rule="nonzero"></path><path stroke="#000000" stroke-width="1.0" stroke-linejoin="round" stroke-linecap="butt" d="m651.15094 354.5551l106.48816 0l0 54.70868l-106.48816 0z" fill-rule="nonzero"></path><path fill="#000000" d="m665.5103 388.82944l-5.28125 -13.59375l1.953125 0l3.53125 9.875q0.4375 1.1875 0.71875 2.21875q0.3125 -1.109375 0.734375 -2.21875l3.671875 -9.875l1.84375 0l-5.328125 13.59375l-1.84375 0zm8.3497925 -11.6875l0 -1.90625l1.671875 0l0 1.90625l-1.671875 0zm0 11.6875l0 -9.859375l1.671875 0l0 9.859375l-1.671875 0zm10.519836 0l0 -1.25q-0.9375 1.46875 -2.75 1.46875q-1.171875 0 -2.171875 -0.640625q-0.984375 -0.65625 -1.53125 -1.8125q-0.53125 -1.171875 -0.53125 -2.6875q0 -1.46875 0.484375 -2.671875q0.5 -1.203125 1.46875 -1.84375q0.984375 -0.640625 2.203125 -0.640625q0.890625 0 1.578125 0.375q0.703125 0.375 1.140625 0.984375l0 -4.875l1.65625 0l0 13.59375l-1.546875 0zm-5.28125 -4.921875q0 1.890625 0.796875 2.828125q0.8125 0.9375 1.890625 0.9375q1.09375 0 1.859375 -0.890625q0.765625 -0.890625 0.765625 -2.734375q0 -2.015625 -0.78125 -2.953125q-0.78125 -0.953125 -1.921875 -0.953125q-1.109375 0 -1.859375 0.90625q-0.75 0.90625 -0.75 2.859375zm8.625732 0.84375l0 -1.6875l5.125 0l0 1.6875l-5.125 0zm6.9938965 4.078125l0 -13.59375l1.796875 0l0 11.984375l6.703125 0l0 1.609375l-8.5 0zm9.844482 -4.375l1.6875 -0.140625q0.125 1.015625 0.5625 1.671875q0.4375 0.65625 1.359375 1.0625q0.9375 0.40625 2.09375 0.40625q1.03125 0 1.8125 -0.3125q0.796875 -0.3125 1.1875 -0.84375q0.390625 -0.53125 0.390625 -1.15625q0 -0.640625 -0.375 -1.109375q-0.375 -0.484375 -1.234375 -0.8125q-0.546875 -0.21875 -2.421875 -0.65625q-1.875 -0.453125 -2.625 -0.859375q-0.96875 -0.515625 -1.453125 -1.265625q-0.46875 -0.75 -0.46875 -1.6875q0 -1.03125 0.578125 -1.921875q0.59375 -0.90625 1.703125 -1.359375q1.125 -0.46875 2.5 -0.46875q1.515625 0 2.671875 0.484375q1.15625 0.484375 1.765625 1.4375q0.625 0.9375 0.671875 2.140625l-1.71875 0.125q-0.140625 -1.28125 -0.953125 -1.9375q-0.796875 -0.671875 -2.359375 -0.671875q-1.625 0 -2.375 0.609375q-0.75 0.59375 -0.75 1.4375q0 0.734375 0.53125 1.203125q0.515625 0.46875 2.703125 0.96875q2.203125 0.5 3.015625 0.875q1.1875 0.546875 1.75 1.390625q0.578125 0.828125 0.578125 1.921875q0 1.09375 -0.625 2.0625q-0.625 0.953125 -1.796875 1.484375q-1.15625 0.53125 -2.609375 0.53125q-1.84375 0 -3.09375 -0.53125q-1.25 -0.546875 -1.96875 -1.625q-0.703125 -1.078125 -0.734375 -2.453125zm16.506042 4.375l0 -12.0l-4.46875 0l0 -1.59375l10.765625 0l0 1.59375l-4.5 0l0 12.0l-1.796875 0zm7.880371 0l0 -13.59375l2.71875 0l3.21875 9.625q0.4375 1.34375 0.640625 2.015625q0.234375 -0.75 0.734375 -2.1875l3.25 -9.453125l2.421875 0l0 13.59375l-1.734375 0l0 -11.390625l-3.953125 11.390625l-1.625 0l-3.9375 -11.578125l0 11.578125l-1.734375 0z" fill-rule="nonzero"></path><path fill="#6aa84f" d="m651.15094 257.4265l106.48816 0l0 54.70865l-106.48816 0z" fill-rule="nonzero"></path><path stroke="#000000" stroke-width="1.0" stroke-linejoin="round" stroke-linecap="butt" d="m651.15094 257.4265l106.48816 0l0 54.70865l-106.48816 0z" fill-rule="nonzero"></path><path fill="#000000" d="m692.8274 291.70084l0 -13.59375l1.796875 0l0 11.984375l6.703125 0l0 1.609375l-8.5 0zm10.391296 0l0 -13.59375l2.71875 0l3.21875 9.625q0.4375 1.34375 0.640625 2.015625q0.234375 -0.75 0.734375 -2.1875l3.25 -9.453125l2.421875 0l0 13.59375l-1.734375 0l0 -11.390625l-3.953125 11.390625l-1.625 0l-3.9375 -11.578125l0 11.578125l-1.734375 0z" fill-rule="nonzero"></path><path fill="#000000" fill-opacity="0.0" d="m554.6155 284.78085l96.53546 0" fill-rule="nonzero"></path><path stroke="#000000" stroke-width="1.0" stroke-linejoin="round" stroke-linecap="butt" stroke-dasharray="4.0,3.0" d="m554.6155 284.78085l90.53546 0" fill-rule="evenodd"></path><path fill="#000000" stroke="#000000" stroke-width="1.0" stroke-linecap="butt" d="m645.15094 286.4326l4.538086 -1.6517334l-4.538086 -1.6517334z" fill-rule="evenodd"></path><path fill="#ffe599" d="m668.31757 46.72966l0 0c0 -17.446981 16.286987 -31.590553 36.37799 -31.590553l0 0c20.090942 0 36.37793 14.143571 36.37793 31.590553l0 0c0 17.446976 -16.286987 31.590553 -36.37793 31.590553l0 0c-20.091003 0 -36.37799 -14.143578 -36.37799 -31.590553z" fill-rule="nonzero"></path><path stroke="#000000" stroke-width="1.0" stroke-linejoin="round" stroke-linecap="butt" d="m668.31757 46.72966l0 0c0 -17.446981 16.286987 -31.590553 36.37799 -31.590553l0 0c20.090942 0 36.37793 14.143571 36.37793 31.590553l0 0c0 17.446976 -16.286987 31.590553 -36.37793 31.590553l0 0c-20.091003 0 -36.37799 -14.143578 -36.37799 -31.590553z" fill-rule="nonzero"></path><path fill="#000000" d="m688.41626 42.816532l3.5 0l2.96875 8.84375l2.90625 -8.84375l3.421875 0l-4.40625 11.984375l-0.78125 2.171875q-0.4375 1.09375 -0.828125 1.65625q-0.390625 0.578125 -0.90625 0.9375q-0.5 0.359375 -1.25 0.546875q-0.734375 0.203125 -1.671875 0.203125q-0.953125 0 -1.875 -0.1875l-0.28125 -2.578125q0.765625 0.140625 1.390625 0.140625q1.140625 0 1.6875 -0.671875q0.5625 -0.671875 0.859375 -1.71875l-4.734375 -12.484375z" fill-rule="nonzero"></path><path fill="#000000" d="m706.54517 55.972782l0 1.75l-1.5 0l0 3.34375q0 1.015625 0.046875 1.1875q0.046875 0.15625 0.1875 0.265625q0.15625 0.109375 0.375 0.109375q0.3125 0 0.890625 -0.203125l0.1875 1.7031288q-0.765625 0.328125 -1.734375 0.328125q-0.59375 0 -1.078125 -0.203125q-0.46875 -0.203125 -0.703125 -0.5156288q-0.21875 -0.3125 -0.296875 -0.859375q-0.078125 -0.375 -0.078125 -1.546875l0 -3.609375l-1.0 0l0 -1.75l1.0 0l0 -1.65625l2.203125 -1.28125l0 2.9375l1.5 0zm1.28125 5.234375l0 -2.1875l4.3125 0l0 2.1875l-4.3125 0zm10.71875 3.0625038l-2.1875 0l0 -8.281254q-1.203125 1.125 -2.84375 1.671875l0 -2.0q0.859375 -0.28125 1.859375 -1.0625q1.015625 -0.78125 1.390625 -1.828125l1.78125 0l0 11.500004z" fill-rule="nonzero"></path><path fill="#000000" fill-opacity="0.0" d="m704.395 257.4265l0.3149414 -106.36221" fill-rule="nonzero"></path><path stroke="#000000" stroke-width="1.0" stroke-linejoin="round" stroke-linecap="butt" d="m704.395 257.4265l0.29718018 -100.36224" fill-rule="evenodd"></path><path fill="#000000" stroke="#000000" stroke-width="1.0" stroke-linecap="butt" d="m706.34393 157.06917l-1.6383057 -4.5429688l-1.6651611 4.533188z" fill-rule="evenodd"></path><path fill="#000000" fill-opacity="0.0" d="m218.77165 371.61154l67.14961 0l0 -31.40158" fill-rule="nonzero"></path><path stroke="#000000" stroke-width="1.0" stroke-linejoin="round" stroke-linecap="butt" d="m218.77165 371.61154l67.14961 0l0 -31.40158" fill-rule="nonzero"></path><path fill="#000000" fill-opacity="0.0" d="m285.98425 371.53543l-0.06298828 -31.338593" fill-rule="nonzero"></path><path stroke="#000000" stroke-width="1.0" stroke-linejoin="round" stroke-linecap="butt" d="m285.98425 371.53543l-0.050933838 -25.338593" fill-rule="evenodd"></path><path fill="#000000" stroke="#000000" stroke-width="1.0" stroke-linecap="butt" d="m287.58505 346.1935l-1.6608582 -4.5347595l-1.6426086 4.5414124z" fill-rule="evenodd"></path><path fill="#000000" fill-opacity="0.0" d="m554.6155 381.90945l96.53546 0" fill-rule="nonzero"></path><path stroke="#000000" stroke-width="1.0" stroke-linejoin="round" stroke-linecap="butt" stroke-dasharray="4.0,3.0" d="m554.6155 381.90945l90.53546 0" fill-rule="evenodd"></path><path fill="#000000" stroke="#000000" stroke-width="1.0" stroke-linecap="butt" d="m645.15094 383.5612l4.538086 -1.6517334l-4.538086 -1.6517334z" fill-rule="evenodd"></path><path fill="#000000" fill-opacity="0.0" d="m704.69556 124.950134l0 -42.04725" fill-rule="nonzero"></path><path stroke="#000000" stroke-width="1.0" stroke-linejoin="round" stroke-linecap="butt" d="m704.69556 124.950134l0 -36.04725" fill-rule="evenodd"></path><path fill="#000000" stroke="#000000" stroke-width="1.0" stroke-linecap="butt" d="m706.3473 88.902885l-1.6517334 -4.5380936l-1.6517334 4.5380936z" fill-rule="evenodd"></path><path fill="#000000" fill-opacity="0.0" d="m704.395 354.5551c0 -5.771515 17.547913 3.6643066 36.608215 -11.542999c19.060364 -15.207336 39.63318 -55.05783 36.608276 -102.51198c-3.0249023 -47.454132 -29.647644 -102.51195 -59.295227 -102.51195" fill-rule="nonzero"></path><path stroke="#000000" stroke-width="1.0" stroke-linejoin="round" stroke-linecap="butt" d="m704.395 354.5551c0 -5.7714844 17.547913 3.6643372 36.608276 -11.54303c19.060364 -15.207306 39.63318 -55.0578 36.608276 -102.51195c-1.5125122 -23.727066 -8.924377 -49.355057 -19.664124 -69.051285c-5.369873 -9.848099 -11.571716 -18.213272 -18.284058 -24.11641c-3.3562012 -2.9515686 -6.839966 -5.2876434 -10.411255 -6.885803c-0.89282227 -0.3995514 -1.7910767 -0.75297546 -2.6941528 -1.0583649c-0.45159912 -0.1526947 -0.9043579 -0.29338074 -1.3582764 -0.42182922c-0.22692871 -0.064208984 -0.4541626 -0.12538147 -0.6816406 -0.18344116l-0.24682617 -0.061279297" fill-rule="evenodd"></path><path fill="#000000" stroke="#000000" stroke-width="1.0" stroke-linecap="butt" d="m724.4732 137.08238l-4.7059937 1.0845337l4.302124 2.1941528z" fill-rule="evenodd"></path><path fill="#f6b26b" d="m854.17456 354.5551l106.48816 0l0 54.70868l-106.48816 0z" fill-rule="nonzero"></path><path stroke="#000000" stroke-width="1.0" stroke-linejoin="round" stroke-linecap="butt" d="m854.17456 354.5551l106.48816 0l0 54.70868l-106.48816 0z" fill-rule="nonzero"></path><path fill="#000000" d="m868.53394 388.82944l-5.28125 -13.59375l1.953125 0l3.53125 9.875q0.4375 1.1875 0.71875 2.21875q0.3125 -1.109375 0.734375 -2.21875l3.671875 -9.875l1.84375 0l-5.328125 13.59375l-1.84375 0zm8.3497925 -11.6875l0 -1.90625l1.671875 0l0 1.90625l-1.671875 0zm0 11.6875l0 -9.859375l1.671875 0l0 9.859375l-1.671875 0zm10.519836 0l0 -1.25q-0.9375 1.46875 -2.75 1.46875q-1.171875 0 -2.171875 -0.640625q-0.984375 -0.65625 -1.53125 -1.8125q-0.53125 -1.171875 -0.53125 -2.6875q0 -1.46875 0.484375 -2.671875q0.5 -1.203125 1.46875 -1.84375q0.984375 -0.640625 2.203125 -0.640625q0.890625 0 1.578125 0.375q0.703125 0.375 1.140625 0.984375l0 -4.875l1.65625 0l0 13.59375l-1.546875 0zm-5.28125 -4.921875q0 1.890625 0.796875 2.828125q0.8125 0.9375 1.890625 0.9375q1.09375 0 1.859375 -0.890625q0.765625 -0.890625 0.765625 -2.734375q0 -2.015625 -0.78125 -2.953125q-0.78125 -0.953125 -1.921875 -0.953125q-1.109375 0 -1.859375 0.90625q-0.75 0.90625 -0.75 2.859375zm8.625732 0.84375l0 -1.6875l5.125 0l0 1.6875l-5.125 0zm6.9938965 4.078125l0 -13.59375l1.796875 0l0 11.984375l6.703125 0l0 1.609375l-8.5 0zm9.844482 -4.375l1.6875 -0.140625q0.125 1.015625 0.5625 1.671875q0.4375 0.65625 1.359375 1.0625q0.9375 0.40625 2.09375 0.40625q1.03125 0 1.8125 -0.3125q0.796875 -0.3125 1.1875 -0.84375q0.390625 -0.53125 0.390625 -1.15625q0 -0.640625 -0.375 -1.109375q-0.375 -0.484375 -1.234375 -0.8125q-0.546875 -0.21875 -2.421875 -0.65625q-1.875 -0.453125 -2.625 -0.859375q-0.96875 -0.515625 -1.453125 -1.265625q-0.46875 -0.75 -0.46875 -1.6875q0 -1.03125 0.578125 -1.921875q0.59375 -0.90625 1.703125 -1.359375q1.125 -0.46875 2.5 -0.46875q1.515625 0 2.671875 0.484375q1.15625 0.484375 1.765625 1.4375q0.625 0.9375 0.671875 2.140625l-1.71875 0.125q-0.140625 -1.28125 -0.953125 -1.9375q-0.796875 -0.671875 -2.359375 -0.671875q-1.625 0 -2.375 0.609375q-0.75 0.59375 -0.75 1.4375q0 0.734375 0.53125 1.203125q0.515625 0.46875 2.703125 0.96875q2.203125 0.5 3.015625 0.875q1.1875 0.546875 1.75 1.390625q0.578125 0.828125 0.578125 1.921875q0 1.09375 -0.625 2.0625q-0.625 0.953125 -1.796875 1.484375q-1.15625 0.53125 -2.609375 0.53125q-1.84375 0 -3.09375 -0.53125q-1.25 -0.546875 -1.96875 -1.625q-0.703125 -1.078125 -0.734375 -2.453125zm16.506042 4.375l0 -12.0l-4.46875 0l0 -1.59375l10.765625 0l0 1.59375l-4.5 0l0 12.0l-1.796875 0zm7.880371 0l0 -13.59375l2.71875 0l3.21875 9.625q0.4375 1.34375 0.640625 2.015625q0.234375 -0.75 0.734375 -2.1875l3.25 -9.453125l2.421875 0l0 13.59375l-1.734375 0l0 -11.390625l-3.953125 11.390625l-1.625 0l-3.9375 -11.578125l0 11.578125l-1.734375 0z" fill-rule="nonzero"></path><path fill="#6aa84f" d="m854.17456 257.4265l106.48816 0l0 54.70865l-106.48816 0z" fill-rule="nonzero"></path><path stroke="#000000" stroke-width="1.0" stroke-linejoin="round" stroke-linecap="butt" d="m854.17456 257.4265l106.48816 0l0 54.70865l-106.48816 0z" fill-rule="nonzero"></path><path fill="#000000" d="m895.851 291.70084l0 -13.59375l1.796875 0l0 11.984375l6.703125 0l0 1.609375l-8.5 0zm10.391296 0l0 -13.59375l2.71875 0l3.21875 9.625q0.4375 1.34375 0.640625 2.015625q0.234375 -0.75 0.734375 -2.1875l3.25 -9.453125l2.421875 0l0 13.59375l-1.734375 0l0 -11.390625l-3.953125 11.390625l-1.625 0l-3.9375 -11.578125l0 11.578125l-1.734375 0z" fill-rule="nonzero"></path><path fill="#000000" fill-opacity="0.0" d="m757.6391 284.78085l96.53546 0" fill-rule="nonzero"></path><path stroke="#000000" stroke-width="1.0" stroke-linejoin="round" stroke-linecap="butt" d="m757.6391 284.78085l90.53546 0" fill-rule="evenodd"></path><path fill="#000000" stroke="#000000" stroke-width="1.0" stroke-linecap="butt" d="m848.17456 286.4326l4.538086 -1.6517334l-4.538086 -1.6517334z" fill-rule="evenodd"></path><path fill="#000000" fill-opacity="0.0" d="m907.41864 257.4265l0.3149414 -106.36221" fill-rule="nonzero"></path><path stroke="#000000" stroke-width="1.0" stroke-linejoin="round" stroke-linecap="butt" d="m907.41864 257.4265l0.29718018 -100.36224" fill-rule="evenodd"></path><path fill="#000000" stroke="#000000" stroke-width="1.0" stroke-linecap="butt" d="m909.36755 157.06917l-1.6383057 -4.5429688l-1.6651611 4.533188z" fill-rule="evenodd"></path><path fill="#000000" fill-opacity="0.0" d="m757.6391 381.90945l96.53546 0" fill-rule="nonzero"></path><path stroke="#000000" stroke-width="1.0" stroke-linejoin="round" stroke-linecap="butt" d="m757.6391 381.90945l90.53546 0" fill-rule="evenodd"></path><path fill="#000000" stroke="#000000" stroke-width="1.0" stroke-linecap="butt" d="m848.17456 383.5612l4.538086 -1.6517334l-4.538086 -1.6517334z" fill-rule="evenodd"></path><path fill="#000000" fill-opacity="0.0" d="m907.71783 124.94357l-0.28344727 -42.015755" fill-rule="nonzero"></path><path stroke="#000000" stroke-width="1.0" stroke-linejoin="round" stroke-linecap="butt" d="m907.71783 124.94357l-0.24291992 -36.015884" fill-rule="evenodd"></path><path fill="#000000" stroke="#000000" stroke-width="1.0" stroke-linecap="butt" d="m909.1266 88.91654l-1.682312 -4.526848l-1.6210938 4.5491333z" fill-rule="evenodd"></path><path fill="#000000" fill-opacity="0.0" d="m745.3884 46.72966l108.787415 335.1811" fill-rule="nonzero"></path><path stroke="#000000" stroke-width="1.0" stroke-linejoin="round" stroke-linecap="butt" d="m745.3884 46.72966l106.93512 329.47418" fill-rule="evenodd"></path><path fill="#000000" stroke="#000000" stroke-width="1.0" stroke-linecap="butt" d="m850.75256 376.71375l2.9719849 3.8065186l0.17010498 -4.826355z" fill-rule="evenodd"></path><path fill="#000000" fill-opacity="0.0" d="m745.3884 46.72966l108.787415 238.04726" fill-rule="nonzero"></path><path stroke="#000000" stroke-width="1.0" stroke-linejoin="round" stroke-linecap="butt" d="m745.3884 46.72966l106.29352 232.5901" fill-rule="evenodd"></path><path fill="#000000" stroke="#000000" stroke-width="1.0" stroke-linecap="butt" d="m850.1796 280.00632l3.3886108 3.4409485l-0.3840332 -4.8140564z" fill-rule="evenodd"></path><path fill="#000000" fill-opacity="0.0" d="m948.41205 46.72966l68.69293 222.26772" fill-rule="nonzero"></path><path stroke="#000000" stroke-width="1.0" stroke-linejoin="round" stroke-linecap="butt" stroke-dasharray="4.0,3.0" d="m948.41205 46.72966l66.921265 216.53523" fill-rule="evenodd"></path><path fill="#000000" stroke="#000000" stroke-width="1.0" stroke-linecap="butt" d="m1013.75525 263.75262l2.9180908 3.8480225l0.23809814 -4.823456z" fill-rule="evenodd"></path><path fill="#000000" fill-opacity="0.0" d="m948.41205 46.72966l82.6142 188.12598" fill-rule="nonzero"></path><path stroke="#000000" stroke-width="1.0" stroke-linejoin="round" stroke-linecap="butt" stroke-dasharray="4.0,3.0" d="m948.41205 46.72966l80.20172 182.63235" fill-rule="evenodd"></path><path fill="#000000" stroke="#000000" stroke-width="1.0" stroke-linecap="butt" d="m1027.1014 230.02615l3.3370361 3.4909668l-0.31237793 -4.819229z" fill-rule="evenodd"></path><path fill="#000000" fill-opacity="0.0" d="m960.6627 281.08005l96.5354 0" fill-rule="nonzero"></path><path stroke="#000000" stroke-width="1.0" stroke-linejoin="round" stroke-linecap="butt" stroke-dasharray="4.0,3.0" d="m960.6627 281.08005l90.5354 0" fill-rule="evenodd"></path><path fill="#000000" stroke="#000000" stroke-width="1.0" stroke-linecap="butt" d="m1051.1981 282.73178l4.538086 -1.6517334l-4.538086 -1.6517334z" fill-rule="evenodd"></path><path fill="#000000" fill-opacity="0.0" d="m960.6627 378.20865l96.5354 0" fill-rule="nonzero"></path><path stroke="#000000" stroke-width="1.0" stroke-linejoin="round" stroke-linecap="butt" stroke-dasharray="4.0,3.0" d="m960.6627 378.20865l90.5354 0" fill-rule="evenodd"></path><path fill="#000000" stroke="#000000" stroke-width="1.0" stroke-linecap="butt" d="m1051.1981 379.86038l4.538086 -1.6517334l-4.538086 -1.6517334z" fill-rule="evenodd"></path><path fill="#000000" fill-opacity="0.0" d="m113.37008 417.44882l277.95276 0l0 41.700775l-277.95276 0z" fill-rule="nonzero"></path><path fill="#000000" d="m179.2195 454.58258q-2.21875 0 -3.625 -0.59375q-1.390625 -0.59375 -2.1875 -1.8125q-0.78125 -1.203125 -1.140625 -3.15625q-0.34375 -1.96875 -0.34375 -5.34375q0 -3.40625 0.34375 -5.375q0.359375 -1.96875 1.15625 -3.1875q0.796875 -1.234375 2.203125 -1.828125q1.40625 -0.609375 3.59375 -0.609375l0 1.28125q-0.75 0 -1.3125 0.15625q-0.5625 0.15625 -0.984375 0.578125q-0.5 0.5 -0.796875 1.421875q-0.359375 1.0625 -0.53125 2.890625q-0.15625 1.828125 -0.15625 4.578125q0 2.546875 0.15625 4.296875q0.15625 1.890625 0.5 3.046875q0.296875 0.9375 0.734375 1.46875q0.359375 0.4375 0.875 0.65625q0.578125 0.25 1.515625 0.25l0 1.28125zm8.4375 -6.625l-0.171875 -0.0625q-0.96875 0.9375 -1.875 1.359375q-0.90625 0.421875 -1.921875 0.421875q-1.015625 0 -1.765625 -0.359375q-0.734375 -0.375 -1.125 -1.03125q-0.375 -0.65625 -0.375 -1.515625q0 -1.71875 1.6875 -2.703125q1.703125 -1.0 5.140625 -1.265625l0 -1.109375q0 -1.09375 -0.25 -1.671875q-0.234375 -0.59375 -0.625 -0.828125q-0.390625 -0.25 -0.921875 -0.25q-0.546875 0 -0.9375 0.1875q-0.390625 0.1875 -0.703125 0.71875q-0.3125 0.515625 -0.46875 1.4375l-2.21875 0l0 -2.140625q1.078125 -0.46875 1.796875 -0.71875q0.71875 -0.265625 1.40625 -0.4375q0.703125 -0.171875 1.25 -0.234375q0.546875 -0.078125 1.109375 -0.078125q1.40625 0 2.25 0.375q0.859375 0.375 1.28125 1.21875q0.421875 0.84375 0.421875 2.328125l0 4.578125q0 0.765625 0.03125 1.1875q0.046875 0.421875 0.109375 0.625q0.078125 0.203125 0.1875 0.328125q0.125 0.125 0.296875 0.203125q0.171875 0.078125 0.640625 0.1875l0 0.78125l-4.359375 0l0.109375 -1.53125zm-0.390625 -4.0q-1.8125 0.046875 -2.6875 0.6875q-0.875 0.625 -0.875 1.84375q0 0.71875 0.390625 1.109375q0.40625 0.375 1.109375 0.375q0.546875 0 1.015625 -0.28125q0.484375 -0.296875 0.765625 -0.765625q0.28125 -0.484375 0.28125 -1.03125l0 -1.9375zm5.796875 -11.28125q2.1875 0 3.578125 0.59375q1.40625 0.578125 2.203125 1.78125q0.796875 1.1875 1.15625 3.15625q0.375 1.96875 0.375 5.375q0 3.390625 -0.359375 5.375q-0.359375 1.96875 -1.15625 3.1875q-0.78125 1.234375 -2.203125 1.828125q-1.40625 0.609375 -3.59375 0.609375l0 -1.28125q0.75 0 1.3125 -0.15625q0.5625 -0.15625 0.984375 -0.578125q0.515625 -0.5 0.796875 -1.421875q0.359375 -1.0625 0.515625 -2.890625q0.171875 -1.828125 0.171875 -4.578125q0 -2.546875 -0.15625 -4.296875q-0.15625 -1.890625 -0.5 -3.046875q-0.296875 -0.9375 -0.734375 -1.46875q-0.359375 -0.4375 -0.875 -0.65625q-0.578125 -0.25 -1.515625 -0.25l0 -1.28125zm21.863281 0.8125l0 0.78125q-0.421875 0.109375 -0.671875 0.25q-0.25 0.125 -0.390625 0.359375q-0.125 0.234375 -0.171875 0.609375q-0.03125 0.375 -0.03125 0.9375l0 11.671875l2.265625 0q0.6875 0 1.09375 -0.203125q0.40625 -0.21875 0.703125 -0.65625q0.3125 -0.453125 0.515625 -1.15625q0.21875 -0.703125 0.359375 -1.328125l1.59375 0l-0.25 4.734375l-11.171875 0l0 -0.78125q0.4375 -0.109375 0.6875 -0.25q0.25 -0.140625 0.375 -0.375q0.125 -0.25 0.15625 -0.609375q0.03125 -0.375 0.03125 -0.9375l0 -10.09375q0 -0.546875 -0.03125 -0.921875q-0.015625 -0.375 -0.140625 -0.609375q-0.125 -0.234375 -0.375 -0.375q-0.25 -0.15625 -0.703125 -0.265625l0 -0.78125l6.15625 0zm13.875 14.46875l-0.171875 -0.0625q-0.96875 0.9375 -1.875 1.359375q-0.90625 0.421875 -1.921875 0.421875q-1.015625 0 -1.765625 -0.359375q-0.734375 -0.375 -1.125 -1.03125q-0.375 -0.65625 -0.375 -1.515625q0 -1.71875 1.6875 -2.703125q1.703125 -1.0 5.140625 -1.265625l0 -1.109375q0 -1.09375 -0.25 -1.671875q-0.234375 -0.59375 -0.625 -0.828125q-0.390625 -0.25 -0.921875 -0.25q-0.546875 0 -0.9375 0.1875q-0.390625 0.1875 -0.703125 0.71875q-0.3125 0.515625 -0.46875 1.4375l-2.21875 0l0 -2.140625q1.078125 -0.46875 1.796875 -0.71875q0.71875 -0.265625 1.40625 -0.4375q0.703125 -0.171875 1.25 -0.234375q0.546875 -0.078125 1.109375 -0.078125q1.40625 0 2.25 0.375q0.859375 0.375 1.28125 1.21875q0.421875 0.84375 0.421875 2.328125l0 4.578125q0 0.765625 0.03125 1.1875q0.046875 0.421875 0.109375 0.625q0.078125 0.203125 0.1875 0.328125q0.125 0.125 0.296875 0.203125q0.171875 0.078125 0.640625 0.1875l0 0.78125l-4.359375 0l0.109375 -1.53125zm-0.390625 -4.0q-1.8125 0.046875 -2.6875 0.6875q-0.875 0.625 -0.875 1.84375q0 0.71875 0.390625 1.109375q0.40625 0.375 1.109375 0.375q0.546875 0 1.015625 -0.28125q0.484375 -0.296875 0.765625 -0.765625q0.28125 -0.484375 0.28125 -1.03125l0 -1.9375zm14.328125 4.125q-1.03125 0.875 -1.875 1.234375q-0.84375 0.359375 -1.78125 0.359375q-1.75 0 -2.609375 -0.9375q-0.859375 -0.953125 -0.859375 -2.859375l0 -6.546875l-1.46875 0l0 -0.8125q0.71875 -0.125 1.046875 -0.359375q0.34375 -0.234375 0.53125 -0.625q0.1875 -0.390625 0.296875 -1.015625q0.109375 -0.640625 0.171875 -1.59375l2.796875 0l0 2.9375l3.34375 0l0 1.46875l-3.34375 0l0 5.28125q0 1.328125 0.125 1.96875q0.125 0.625 0.421875 0.921875q0.296875 0.296875 0.71875 0.296875q0.328125 0 0.578125 -0.0625q0.265625 -0.0625 0.546875 -0.203125q0.296875 -0.15625 0.609375 -0.4375l0.75 0.984375zm11.34375 -0.734375q-1.1875 1.265625 -2.359375 1.796875q-1.171875 0.53125 -2.703125 0.53125q-2.71875 0 -4.109375 -1.484375q-1.375 -1.5 -1.375 -4.453125q0 -1.890625 0.703125 -3.265625q0.71875 -1.375 2.015625 -2.078125q1.3125 -0.71875 3.03125 -0.71875q1.0625 0 1.859375 0.25q0.8125 0.234375 1.375 0.6875q0.578125 0.4375 0.953125 1.046875q0.453125 0.75 0.671875 1.6875q0.234375 0.984375 0.25 2.359375l-7.4375 0q0.015625 2.125 0.75 3.125q0.75 1.0 2.28125 1.0q0.890625 0 1.59375 -0.328125q0.71875 -0.34375 1.5625 -1.1875l0.9375 1.03125zm-3.15625 -4.90625q-0.046875 -1.796875 -0.46875 -2.671875q-0.421875 -0.875 -1.359375 -0.875q-0.90625 0 -1.4375 0.921875q-0.53125 0.90625 -0.640625 2.625l3.90625 0zm15.585953 4.109375q0 0.609375 0.03125 0.9375q0.03125 0.328125 0.125 0.53125q0.09375 0.1875 0.234375 0.3125q0.140625 0.125 0.375 0.234375q0.234375 0.09375 0.65625 0.140625l0 0.78125l-6.3125 0l0 -0.78125q0.4375 -0.09375 0.6875 -0.234375q0.25 -0.140625 0.375 -0.375q0.125 -0.25 0.15625 -0.625q0.03125 -0.375 0.03125 -0.9375l0 -10.09375q0 -0.546875 -0.03125 -0.921875q-0.015625 -0.375 -0.140625 -0.609375q-0.125 -0.234375 -0.375 -0.375q-0.25 -0.15625 -0.703125 -0.265625l0 -0.78125l11.328125 0l0 3.734375l-1.59375 0q-0.390625 -1.125 -0.671875 -1.515625q-0.265625 -0.390625 -0.640625 -0.609375q-0.375 -0.234375 -1.265625 -0.234375l-2.265625 0l0 5.96875l1.5 0q0.546875 0 0.84375 -0.171875q0.296875 -0.171875 0.484375 -0.5625q0.203125 -0.40625 0.328125 -1.140625l1.328125 0l0 5.109375l-1.328125 0q-0.140625 -0.734375 -0.34375 -1.140625q-0.1875 -0.40625 -0.484375 -0.5625q-0.296875 -0.171875 -0.828125 -0.171875l-1.5 0l0 4.359375zm7.9648438 -8.6875l4.5625 0l0 6.5q0 1.125 0.0625 1.765625q0.078125 0.625 0.265625 1.0q0.203125 0.359375 0.484375 0.53125q0.296875 0.171875 0.75 0.171875q0.421875 0 0.90625 -0.265625q0.484375 -0.265625 0.8125 -0.75q0.34375 -0.5 0.34375 -1.046875l0 -4.515625q0 -0.859375 -0.046875 -1.265625q-0.03125 -0.421875 -0.140625 -0.65625q-0.09375 -0.234375 -0.3125 -0.390625q-0.203125 -0.171875 -0.671875 -0.3125l0 -0.765625l4.5625 0l0 8.203125q0 0.890625 0.03125 1.296875q0.03125 0.40625 0.125 0.65625q0.109375 0.25 0.34375 0.40625q0.234375 0.15625 0.796875 0.28125l0 0.78125l-3.1875 0.109375l-1.421875 0l0.109375 -1.6875l-0.140625 -0.046875q-1.09375 1.015625 -1.953125 1.421875q-0.859375 0.390625 -1.71875 0.390625q-1.25 0 -2.0 -0.453125q-0.734375 -0.46875 -1.0625 -1.359375q-0.328125 -0.90625 -0.328125 -2.328125l0 -4.28125q0 -0.65625 -0.015625 -1.0q-0.015625 -0.359375 -0.0625 -0.546875q-0.03125 -0.203125 -0.09375 -0.359375q-0.0625 -0.15625 -0.171875 -0.28125q-0.109375 -0.140625 -0.3125 -0.234375q-0.1875 -0.109375 -0.515625 -0.203125l0 -0.765625zm16.097656 8.453125q0.28125 1.078125 0.890625 1.609375q0.609375 0.53125 1.640625 0.53125q0.875 0 1.328125 -0.390625q0.453125 -0.40625 0.453125 -1.171875q0 -0.484375 -0.21875 -0.8125q-0.203125 -0.34375 -0.671875 -0.65625q-0.46875 -0.3125 -1.625 -0.8125q-0.640625 -0.28125 -1.21875 -0.625q-0.5625 -0.34375 -0.984375 -0.765625q-0.421875 -0.421875 -0.671875 -0.953125q-0.234375 -0.53125 -0.234375 -1.171875q0 -1.0625 0.609375 -1.828125q0.609375 -0.78125 1.734375 -1.1875q1.125 -0.40625 2.578125 -0.40625q0.859375 0 1.671875 0.078125q0.828125 0.0625 2.125 0.296875l0 2.734375l-1.546875 0q-0.265625 -0.75 -0.59375 -1.15625q-0.3125 -0.421875 -0.703125 -0.578125q-0.390625 -0.15625 -0.921875 -0.15625q-0.78125 0 -1.234375 0.359375q-0.453125 0.34375 -0.453125 0.96875q0 0.453125 0.15625 0.765625q0.171875 0.3125 0.59375 0.625q0.421875 0.296875 1.625 0.796875q1.109375 0.453125 1.796875 0.953125q0.6875 0.5 1.046875 1.15625q0.375 0.640625 0.375 1.515625q0 0.9375 -0.359375 1.625q-0.34375 0.6875 -0.984375 1.140625q-0.625 0.4375 -1.515625 0.65625q-0.890625 0.21875 -1.953125 0.21875q-1.9375 0 -4.296875 -0.546875l0 -2.8125l1.5625 0zm13.953125 -13.125l0 2.859375l-3.21875 0l0 -2.859375l3.21875 0zm-4.453125 15.515625q0.578125 -0.140625 0.78125 -0.390625q0.21875 -0.25 0.296875 -0.671875q0.078125 -0.421875 0.078125 -1.53125l0 -5.453125q0 -0.578125 -0.0625 -0.921875q-0.046875 -0.359375 -0.1875 -0.5625q-0.140625 -0.21875 -0.40625 -0.328125q-0.25 -0.109375 -0.640625 -0.1875l0 -0.796875l3.21875 -0.09375l1.46875 0l0 8.328125q0 0.65625 0.015625 1.015625q0.015625 0.359375 0.046875 0.5625q0.046875 0.1875 0.109375 0.34375q0.0625 0.140625 0.15625 0.28125q0.109375 0.125 0.3125 0.234375q0.203125 0.09375 0.53125 0.171875l0 0.78125l-5.71875 0l0 -0.78125zm13.234375 0.96875q-1.71875 0 -2.96875 -0.59375q-1.25 -0.609375 -1.953125 -1.9375q-0.703125 -1.34375 -0.703125 -3.390625q0 -1.5625 0.4375 -2.703125q0.4375 -1.15625 1.203125 -1.90625q0.78125 -0.75 1.84375 -1.109375q1.078125 -0.359375 2.328125 -0.359375q2.84375 0 4.28125 1.5q1.4375 1.484375 1.4375 4.375q0 2.03125 -0.71875 3.40625q-0.703125 1.375 -2.03125 2.046875q-1.328125 0.671875 -3.15625 0.671875zm-2.0625 -6.171875q0 2.484375 0.5625 3.71875q0.5625 1.234375 1.6875 1.234375q0.609375 0 1.03125 -0.3125q0.421875 -0.328125 0.671875 -0.921875q0.25 -0.59375 0.34375 -1.421875q0.109375 -0.84375 0.109375 -1.890625q0 -2.515625 -0.5625 -3.765625q-0.546875 -1.25 -1.640625 -1.25q-0.796875 0 -1.28125 0.5q-0.46875 0.5 -0.703125 1.515625q-0.21875 1.0 -0.21875 2.59375zm22.789062 5.984375l-5.6875 0l0 -0.78125q0.546875 -0.125 0.75 -0.375q0.21875 -0.25 0.28125 -0.671875q0.078125 -0.4375 0.078125 -1.546875l0 -3.125q0 -0.84375 -0.03125 -1.375q-0.03125 -0.53125 -0.109375 -0.859375q-0.078125 -0.34375 -0.21875 -0.578125q-0.125 -0.234375 -0.296875 -0.375q-0.15625 -0.140625 -0.375 -0.203125q-0.203125 -0.078125 -0.53125 -0.078125q-0.453125 0 -0.9375 0.28125q-0.46875 0.265625 -0.796875 0.75q-0.328125 0.484375 -0.328125 1.03125l0 4.515625q0 1.109375 0.0625 1.546875q0.078125 0.4375 0.296875 0.6875q0.21875 0.25 0.765625 0.375l0 0.78125l-5.65625 0l0 -0.78125q0.5625 -0.140625 0.765625 -0.390625q0.21875 -0.25 0.296875 -0.671875q0.078125 -0.421875 0.078125 -1.53125l0 -4.8125q0 -0.875 -0.03125 -1.28125q-0.03125 -0.421875 -0.140625 -0.671875q-0.109375 -0.25 -0.34375 -0.40625q-0.21875 -0.171875 -0.78125 -0.28125l0 -0.796875l3.203125 -0.09375l1.484375 0l-0.171875 1.6875l0.140625 0.03125q0.71875 -0.640625 1.265625 -1.0q0.5625 -0.375 1.15625 -0.59375q0.609375 -0.21875 1.28125 -0.21875q0.953125 0 1.578125 0.28125q0.640625 0.265625 1.03125 0.796875q0.390625 0.53125 0.5625 1.296875q0.171875 0.75 0.171875 1.765625l0 4.28125q0 0.515625 0.015625 0.96875q0.015625 0.453125 0.078125 0.71875q0.078125 0.265625 0.203125 0.4375q0.125 0.171875 0.34375 0.296875q0.234375 0.109375 0.546875 0.1875l0 0.78125z" fill-rule="nonzero"></path><path fill="#000000" fill-opacity="0.0" d="m651.2782 418.5092l294.86615 0l0 41.700775l-294.86615 0z" fill-rule="nonzero"></path><path fill="#000000" d="m720.33435 455.64294q-2.21875 0 -3.625 -0.59375q-1.390625 -0.59375 -2.1875 -1.8125q-0.78125 -1.203125 -1.140625 -3.15625q-0.34375 -1.96875 -0.34375 -5.34375q0 -3.40625 0.34375 -5.375q0.359375 -1.96875 1.15625 -3.1875q0.796875 -1.234375 2.203125 -1.828125q1.40625 -0.609375 3.59375 -0.609375l0 1.28125q-0.75 0 -1.3125 0.15625q-0.5625 0.15625 -0.984375 0.578125q-0.5 0.5 -0.796875 1.421875q-0.359375 1.0625 -0.53125 2.890625q-0.15625 1.828125 -0.15625 4.578125q0 2.546875 0.15625 4.296875q0.15625 1.890625 0.5 3.046875q0.296875 0.9375 0.734375 1.46875q0.359375 0.4375 0.875 0.65625q0.578125 0.25 1.515625 0.25l0 1.28125zm2.359375 -17.828125q0 -0.84375 -0.015625 -1.28125q0 -0.453125 -0.0625 -0.78125q-0.0625 -0.328125 -0.1875 -0.515625q-0.125 -0.1875 -0.34375 -0.296875q-0.21875 -0.125 -0.703125 -0.234375l0 -0.78125l3.265625 -0.15625l1.4375 0l0 6.71875l0.015625 0q0.703125 -0.640625 1.21875 -0.984375q0.53125 -0.359375 1.125 -0.5625q0.609375 -0.203125 1.28125 -0.203125q2.09375 0 3.125 1.46875q1.046875 1.46875 1.046875 4.40625q0 2.015625 -0.609375 3.390625q-0.609375 1.359375 -1.828125 2.046875q-1.21875 0.6875 -3.0 0.6875q-1.859375 0 -3.390625 -0.671875l-0.875 0.671875l-1.5 -0.21875l0 -12.703125zm3.390625 8.890625q0 1.4375 0.5 2.125q0.5 0.6875 1.546875 0.6875q1.078125 0 1.640625 -1.125q0.5625 -1.140625 0.5625 -3.234375q0 -2.3125 -0.5 -3.4375q-0.5 -1.140625 -1.5625 -1.140625q-0.515625 0 -1.03125 0.265625q-0.5 0.265625 -0.828125 0.765625q-0.328125 0.5 -0.328125 1.09375l0 4.0zm9.441406 -12.96875q2.1875 0 3.578125 0.59375q1.40625 0.578125 2.203125 1.78125q0.796875 1.1875 1.15625 3.15625q0.375 1.96875 0.375 5.375q0 3.390625 -0.359375 5.375q-0.359375 1.96875 -1.15625 3.1875q-0.78125 1.234375 -2.203125 1.828125q-1.40625 0.609375 -3.59375 0.609375l0 -1.28125q0.75 0 1.3125 -0.15625q0.5625 -0.15625 0.984375 -0.578125q0.515625 -0.5 0.796875 -1.421875q0.359375 -1.0625 0.515625 -2.890625q0.171875 -1.828125 0.171875 -4.578125q0 -2.546875 -0.15625 -4.296875q-0.15625 -1.890625 -0.5 -3.046875q-0.296875 -0.9375 -0.734375 -1.46875q-0.359375 -0.4375 -0.875 -0.65625q-0.578125 -0.25 -1.515625 -0.25l0 -1.28125zm21.800781 0.8125q1.953125 0 3.265625 0.3125q1.3125 0.296875 2.328125 0.953125q1.03125 0.65625 1.65625 1.5625q0.625 0.90625 0.921875 2.109375q0.3125 1.203125 0.3125 2.71875q0 1.828125 -0.4375 3.28125q-0.421875 1.453125 -1.265625 2.484375q-0.765625 0.921875 -1.875 1.53125q-1.109375 0.59375 -2.546875 0.828125q-1.25 0.21875 -3.125 0.21875l-5.328125 0l0 -0.78125q0.4375 -0.109375 0.6875 -0.234375q0.25 -0.140625 0.375 -0.375q0.125 -0.25 0.15625 -0.609375q0.03125 -0.375 0.03125 -0.9375l0 -10.109375q0 -0.546875 -0.03125 -0.921875q-0.015625 -0.375 -0.140625 -0.609375q-0.125 -0.234375 -0.375 -0.375q-0.25 -0.15625 -0.703125 -0.265625l0 -0.78125l6.09375 0zm-1.203125 14.578125q0.203125 0.03125 1.0625 0.03125q1.296875 0 2.171875 -0.375q0.65625 -0.28125 1.109375 -0.765625q0.765625 -0.8125 1.15625 -2.09375q0.421875 -1.40625 0.421875 -3.4375q0 -2.234375 -0.609375 -3.703125q-0.59375 -1.46875 -1.6875 -2.15625q-1.078125 -0.703125 -2.578125 -0.703125q-0.734375 0 -1.046875 0.015625l0 13.1875zm22.503906 -0.71875q-1.1875 1.265625 -2.359375 1.796875q-1.171875 0.53125 -2.703125 0.53125q-2.71875 0 -4.109375 -1.484375q-1.375 -1.5 -1.375 -4.453125q0 -1.890625 0.703125 -3.265625q0.71875 -1.375 2.015625 -2.078125q1.3125 -0.71875 3.03125 -0.71875q1.0625 0 1.859375 0.25q0.8125 0.234375 1.375 0.6875q0.578125 0.4375 0.953125 1.046875q0.453125 0.75 0.671875 1.6875q0.234375 0.984375 0.25 2.359375l-7.4375 0q0.015625 2.125 0.75 3.125q0.75 1.0 2.28125 1.0q0.890625 0 1.59375 -0.328125q0.71875 -0.34375 1.5625 -1.1875l0.9375 1.03125zm-3.15625 -4.90625q-0.046875 -1.796875 -0.46875 -2.671875q-0.421875 -0.875 -1.359375 -0.875q-0.90625 0 -1.4375 0.921875q-0.53125 0.90625 -0.640625 2.625l3.90625 0zm15.894531 4.90625q-1.1875 1.265625 -2.359375 1.796875q-1.171875 0.53125 -2.703125 0.53125q-2.71875 0 -4.109375 -1.484375q-1.375 -1.5 -1.375 -4.453125q0 -1.890625 0.703125 -3.265625q0.71875 -1.375 2.015625 -2.078125q1.3125 -0.71875 3.03125 -0.71875q1.0625 0 1.859375 0.25q0.8125 0.234375 1.375 0.6875q0.578125 0.4375 0.953125 1.046875q0.453125 0.75 0.671875 1.6875q0.234375 0.984375 0.25 2.359375l-7.4375 0q0.015625 2.125 0.75 3.125q0.75 1.0 2.28125 1.0q0.890625 0 1.59375 -0.328125q0.71875 -0.34375 1.5625 -1.1875l0.9375 1.03125zm-3.15625 -4.90625q-0.046875 -1.796875 -0.46875 -2.671875q-0.421875 -0.875 -1.359375 -0.875q-0.90625 0 -1.4375 0.921875q-0.53125 0.90625 -0.640625 2.625l3.90625 0zm9.675781 9.140625q0 0.890625 0.09375 1.25q0.09375 0.359375 0.328125 0.5625q0.25 0.21875 0.859375 0.359375l0 0.78125l-5.84375 0l0 -0.78125q0.5625 -0.15625 0.765625 -0.359375q0.21875 -0.203125 0.3125 -0.5625q0.09375 -0.359375 0.09375 -1.25l0 -10.25q0 -0.828125 -0.015625 -1.171875q-0.015625 -0.359375 -0.078125 -0.609375q-0.0625 -0.25 -0.1875 -0.40625q-0.109375 -0.15625 -0.34375 -0.265625q-0.21875 -0.125 -0.671875 -0.21875l0 -0.796875l3.25 -0.09375l1.4375 0l-0.171875 1.703125l0.140625 0.03125q1.0 -0.96875 1.875 -1.390625q0.875 -0.4375 1.796875 -0.4375q2.09375 0 3.125 1.46875q1.046875 1.46875 1.046875 4.40625q0 2.015625 -0.609375 3.390625q-0.609375 1.359375 -1.828125 2.046875q-1.21875 0.6875 -3.0 0.6875q-1.21875 0 -2.375 -0.3125l0 2.21875zm0 -5.9375q0 1.4375 0.5 2.125q0.5 0.6875 1.546875 0.6875q1.078125 0 1.640625 -1.125q0.5625 -1.140625 0.5625 -3.234375q0 -2.328125 -0.515625 -3.453125q-0.5 -1.125 -1.578125 -1.125q-0.53125 0 -1.03125 0.265625q-0.484375 0.265625 -0.8125 0.765625q-0.3125 0.5 -0.3125 1.125l0 3.96875zm20.242188 0.90625q0 0.609375 0.03125 0.9375q0.03125 0.328125 0.125 0.53125q0.09375 0.1875 0.234375 0.3125q0.140625 0.125 0.375 0.234375q0.234375 0.09375 0.65625 0.140625l0 0.78125l-6.3125 0l0 -0.78125q0.4375 -0.09375 0.6875 -0.234375q0.25 -0.140625 0.375 -0.375q0.125 -0.25 0.15625 -0.625q0.03125 -0.375 0.03125 -0.9375l0 -10.09375q0 -0.546875 -0.03125 -0.921875q-0.015625 -0.375 -0.140625 -0.609375q-0.125 -0.234375 -0.375 -0.375q-0.25 -0.15625 -0.703125 -0.265625l0 -0.78125l11.328125 0l0 3.734375l-1.59375 0q-0.390625 -1.125 -0.671875 -1.515625q-0.265625 -0.390625 -0.640625 -0.609375q-0.375 -0.234375 -1.265625 -0.234375l-2.265625 0l0 5.96875l1.5 0q0.546875 0 0.84375 -0.171875q0.296875 -0.171875 0.484375 -0.5625q0.203125 -0.40625 0.328125 -1.140625l1.328125 0l0 5.109375l-1.328125 0q-0.140625 -0.734375 -0.34375 -1.140625q-0.1875 -0.40625 -0.484375 -0.5625q-0.296875 -0.171875 -0.828125 -0.171875l-1.5 0l0 4.359375zm7.9648438 -8.6875l4.5625 0l0 6.5q0 1.125 0.0625 1.765625q0.078125 0.625 0.265625 1.0q0.203125 0.359375 0.484375 0.53125q0.296875 0.171875 0.75 0.171875q0.421875 0 0.90625 -0.265625q0.484375 -0.265625 0.8125 -0.75q0.34375 -0.5 0.34375 -1.046875l0 -4.515625q0 -0.859375 -0.046875 -1.265625q-0.03125 -0.421875 -0.140625 -0.65625q-0.09375 -0.234375 -0.3125 -0.390625q-0.203125 -0.171875 -0.671875 -0.3125l0 -0.765625l4.5625 0l0 8.203125q0 0.890625 0.03125 1.296875q0.03125 0.40625 0.125 0.65625q0.109375 0.25 0.34375 0.40625q0.234375 0.15625 0.796875 0.28125l0 0.78125l-3.1875 0.109375l-1.421875 0l0.109375 -1.6875l-0.140625 -0.046875q-1.09375 1.015625 -1.953125 1.421875q-0.859375 0.390625 -1.71875 0.390625q-1.25 0 -2.0 -0.453125q-0.734375 -0.46875 -1.0625 -1.359375q-0.328125 -0.90625 -0.328125 -2.328125l0 -4.28125q0 -0.65625 -0.015625 -1.0q-0.015625 -0.359375 -0.0625 -0.546875q-0.03125 -0.203125 -0.09375 -0.359375q-0.0625 -0.15625 -0.171875 -0.28125q-0.109375 -0.140625 -0.3125 -0.234375q-0.1875 -0.109375 -0.515625 -0.203125l0 -0.765625zm16.097656 8.453125q0.28125 1.078125 0.890625 1.609375q0.609375 0.53125 1.640625 0.53125q0.875 0 1.328125 -0.390625q0.453125 -0.40625 0.453125 -1.171875q0 -0.484375 -0.21875 -0.8125q-0.203125 -0.34375 -0.671875 -0.65625q-0.46875 -0.3125 -1.625 -0.8125q-0.640625 -0.28125 -1.21875 -0.625q-0.5625 -0.34375 -0.984375 -0.765625q-0.421875 -0.421875 -0.671875 -0.953125q-0.234375 -0.53125 -0.234375 -1.171875q0 -1.0625 0.609375 -1.828125q0.609375 -0.78125 1.734375 -1.1875q1.125 -0.40625 2.578125 -0.40625q0.859375 0 1.671875 0.078125q0.828125 0.0625 2.125 0.296875l0 2.734375l-1.546875 0q-0.265625 -0.75 -0.59375 -1.15625q-0.3125 -0.421875 -0.703125 -0.578125q-0.390625 -0.15625 -0.921875 -0.15625q-0.78125 0 -1.234375 0.359375q-0.453125 0.34375 -0.453125 0.96875q0 0.453125 0.15625 0.765625q0.171875 0.3125 0.59375 0.625q0.421875 0.296875 1.625 0.796875q1.109375 0.453125 1.796875 0.953125q0.6875 0.5 1.046875 1.15625q0.375 0.640625 0.375 1.515625q0 0.9375 -0.359375 1.625q-0.34375 0.6875 -0.984375 1.140625q-0.625 0.4375 -1.515625 0.65625q-0.890625 0.21875 -1.953125 0.21875q-1.9375 0 -4.296875 -0.546875l0 -2.8125l1.5625 0zm13.953125 -13.125l0 2.859375l-3.21875 0l0 -2.859375l3.21875 0zm-4.453125 15.515625q0.578125 -0.140625 0.78125 -0.390625q0.21875 -0.25 0.296875 -0.671875q0.078125 -0.421875 0.078125 -1.53125l0 -5.453125q0 -0.578125 -0.0625 -0.921875q-0.046875 -0.359375 -0.1875 -0.5625q-0.140625 -0.21875 -0.40625 -0.328125q-0.25 -0.109375 -0.640625 -0.1875l0 -0.796875l3.21875 -0.09375l1.46875 0l0 8.328125q0 0.65625 0.015625 1.015625q0.015625 0.359375 0.046875 0.5625q0.046875 0.1875 0.109375 0.34375q0.0625 0.140625 0.15625 0.28125q0.109375 0.125 0.3125 0.234375q0.203125 0.09375 0.53125 0.171875l0 0.78125l-5.71875 0l0 -0.78125zm13.234375 0.96875q-1.71875 0 -2.96875 -0.59375q-1.25 -0.609375 -1.953125 -1.9375q-0.703125 -1.34375 -0.703125 -3.390625q0 -1.5625 0.4375 -2.703125q0.4375 -1.15625 1.203125 -1.90625q0.78125 -0.75 1.84375 -1.109375q1.078125 -0.359375 2.328125 -0.359375q2.84375 0 4.28125 1.5q1.4375 1.484375 1.4375 4.375q0 2.03125 -0.71875 3.40625q-0.703125 1.375 -2.03125 2.046875q-1.328125 0.671875 -3.15625 0.671875zm-2.0625 -6.171875q0 2.484375 0.5625 3.71875q0.5625 1.234375 1.6875 1.234375q0.609375 0 1.03125 -0.3125q0.421875 -0.328125 0.671875 -0.921875q0.25 -0.59375 0.34375 -1.421875q0.109375 -0.84375 0.109375 -1.890625q0 -2.515625 -0.5625 -3.765625q-0.546875 -1.25 -1.640625 -1.25q-0.796875 0 -1.28125 0.5q-0.46875 0.5 -0.703125 1.515625q-0.21875 1.0 -0.21875 2.59375zm22.789062 5.984375l-5.6875 0l0 -0.78125q0.546875 -0.125 0.75 -0.375q0.21875 -0.25 0.28125 -0.671875q0.078125 -0.4375 0.078125 -1.546875l0 -3.125q0 -0.84375 -0.03125 -1.375q-0.03125 -0.53125 -0.109375 -0.859375q-0.078125 -0.34375 -0.21875 -0.578125q-0.125 -0.234375 -0.296875 -0.375q-0.15625 -0.140625 -0.375 -0.203125q-0.203125 -0.078125 -0.53125 -0.078125q-0.453125 0 -0.9375 0.28125q-0.46875 0.265625 -0.796875 0.75q-0.328125 0.484375 -0.328125 1.03125l0 4.515625q0 1.109375 0.0625 1.546875q0.078125 0.4375 0.296875 0.6875q0.21875 0.25 0.765625 0.375l0 0.78125l-5.65625 0l0 -0.78125q0.5625 -0.140625 0.765625 -0.390625q0.21875 -0.25 0.296875 -0.671875q0.078125 -0.421875 0.078125 -1.53125l0 -4.8125q0 -0.875 -0.03125 -1.28125q-0.03125 -0.421875 -0.140625 -0.671875q-0.109375 -0.25 -0.34375 -0.40625q-0.21875 -0.171875 -0.78125 -0.28125l0 -0.796875l3.203125 -0.09375l1.484375 0l-0.171875 1.6875l0.140625 0.03125q0.71875 -0.640625 1.265625 -1.0q0.5625 -0.375 1.15625 -0.59375q0.609375 -0.21875 1.28125 -0.21875q0.953125 0 1.578125 0.28125q0.640625 0.265625 1.03125 0.796875q0.390625 0.53125 0.5625 1.296875q0.171875 0.75 0.171875 1.765625l0 4.28125q0 0.515625 0.015625 0.96875q0.015625 0.453125 0.078125 0.71875q0.078125 0.265625 0.203125 0.4375q0.125 0.171875 0.34375 0.296875q0.234375 0.109375 0.546875 0.1875l0 0.78125z" fill-rule="nonzero"></path><path fill="#000000" fill-opacity="0.0" d="m575.96063 177.8412l72.75592 204.063" fill-rule="nonzero"></path><path stroke="#000000" stroke-width="1.0" stroke-linejoin="round" stroke-linecap="butt" stroke-dasharray="4.0,3.0" d="m575.96063 177.8412l70.740906 198.41145" fill-rule="evenodd"></path><path fill="#000000" stroke="#000000" stroke-width="1.0" stroke-linecap="butt" d="m645.14575 376.80737l3.079834 3.719818l0.031799316 -4.8292236z" fill-rule="evenodd"></path><path fill="#000000" fill-opacity="0.0" d="m586.06824 157.62335l62.64569 127.1496" fill-rule="nonzero"></path><path stroke="#000000" stroke-width="1.0" stroke-linejoin="round" stroke-linecap="butt" stroke-dasharray="4.0,3.0" d="m586.06824 157.62335l59.993896 121.767426" fill-rule="evenodd"></path><path fill="#000000" stroke="#000000" stroke-width="1.0" stroke-linecap="butt" d="m644.5805 280.12076l3.4873047 3.3408203l-0.5239868 -4.800812z" fill-rule="evenodd"></path><path fill="#000000" fill-opacity="0.0" d="m867.02625 46.72966l0 0c0 -19.977924 18.218811 -36.17323 40.692932 -36.17323l0 0c22.47406 0 40.69287 16.195305 40.69287 36.17323l0 0c0 19.97792 -18.218811 36.173225 -40.69287 36.173225l0 0c-22.474121 0 -40.692932 -16.195305 -40.692932 -36.173225z" fill-rule="nonzero"></path><path stroke="#000000" stroke-width="1.0" stroke-linejoin="round" stroke-linecap="butt" d="m867.02625 46.72966l0 0c0 -19.977924 18.218811 -36.17323 40.692932 -36.17323l0 0c22.47406 0 40.69287 16.195305 40.69287 36.17323l0 0c0 19.97792 -18.218811 36.173225 -40.69287 36.173225l0 0c-22.474121 0 -40.692932 -16.195305 -40.692932 -36.173225z" fill-rule="nonzero"></path><path fill="#ffe599" d="m871.3412 46.72966l0 0c0 -17.446981 16.286987 -31.590553 36.37799 -31.590553l0 0c20.091003 0 36.37793 14.143571 36.37793 31.590553l0 0c0 17.446976 -16.286926 31.590546 -36.37793 31.590546l0 0c-20.091003 0 -36.37799 -14.14357 -36.37799 -31.590546z" fill-rule="nonzero"></path><path stroke="#000000" stroke-width="1.0" stroke-linejoin="round" stroke-linecap="butt" d="m871.3412 46.72966l0 0c0 -17.446981 16.286987 -31.590553 36.37799 -31.590553l0 0c20.091003 0 36.37793 14.143571 36.37793 31.590553l0 0c0 17.446976 -16.286926 31.590546 -36.37793 31.590546l0 0c-20.091003 0 -36.37799 -14.14357 -36.37799 -31.590546z" fill-rule="nonzero"></path><path fill="#000000" d="m898.55316 42.816532l3.5 0l2.96875 8.84375l2.90625 -8.84375l3.421875 0l-4.40625 11.984375l-0.78125 2.171875q-0.4375 1.09375 -0.828125 1.65625q-0.390625 0.578125 -0.90625 0.9375q-0.5 0.359375 -1.25 0.546875q-0.734375 0.203125 -1.671875 0.203125q-0.953125 0 -1.875 -0.1875l-0.28125 -2.578125q0.765625 0.140625 1.390625 0.140625q1.140625 0 1.6875 -0.671875q0.5625 -0.671875 0.859375 -1.71875l-4.734375 -12.484375z" fill-rule="nonzero"></path><path fill="#000000" d="m916.68207 55.972782l0 1.75l-1.5 0l0 3.34375q0 1.015625 0.046875 1.1875q0.046875 0.15625 0.1875 0.265625q0.15625 0.109375 0.375 0.109375q0.3125 0 0.890625 -0.203125l0.1875 1.7031288q-0.765625 0.328125 -1.734375 0.328125q-0.59375 0 -1.078125 -0.203125q-0.46875 -0.203125 -0.703125 -0.5156288q-0.21875 -0.3125 -0.296875 -0.859375q-0.078125 -0.375 -0.078125 -1.546875l0 -3.609375l-1.0 0l0 -1.75l1.0 0l0 -1.65625l2.203125 -1.28125l0 2.9375l1.5 0z" fill-rule="nonzero"></path><path fill="#cfe2f3" d="m690.4895 138.0l13.905518 -13.055115l13.905518 13.055115l-13.905518 13.055115z" fill-rule="nonzero"></path><path stroke="#000000" stroke-width="1.0" stroke-linejoin="round" stroke-linecap="butt" d="m690.4895 138.0l13.905518 -13.055115l13.905518 13.055115l-13.905518 13.055115z" fill-rule="nonzero"></path><path fill="#000000" fill-opacity="0.0" d="m907.41864 354.5551c0 -6.202667 18.559204 2.8573914 38.777588 -12.405304c20.218384 -15.262726 42.095947 -54.848206 38.777588 -102.06506c-3.3184204 -47.216858 -31.832703 -102.06506 -63.665405 -102.06506" fill-rule="nonzero"></path><path stroke="#000000" stroke-width="1.0" stroke-linejoin="round" stroke-linecap="butt" d="m907.41864 354.5551c0 -6.202667 18.559204 2.8574219 38.777527 -12.405304c20.218445 -15.262726 42.09601 -54.848206 38.77765 -102.06506c-1.6591797 -23.608429 -9.617371 -49.124695 -21.139832 -68.73886c-5.7612305 -9.807068 -12.413574 -18.138626 -19.615051 -24.018402c-3.60083 -2.9398956 -7.338928 -5.2668457 -11.171509 -6.8588104c-0.9581909 -0.397995 -1.9222412 -0.75006104 -2.8916016 -1.0542755c-0.48461914 -0.15209961 -0.9706421 -0.2922516 -1.4578247 -0.42019653c-0.24359131 -0.0639801 -0.48754883 -0.12490845 -0.73168945 -0.18275452c-0.12213135 -0.028915405 -0.2442627 -0.05706787 -0.36657715 -0.0844574l-0.3251953 -0.07072449" fill-rule="evenodd"></path><path fill="#000000" stroke="#000000" stroke-width="1.0" stroke-linecap="butt" d="m927.44977 137.01385l-4.687744 1.1609344l4.3372803 2.123886z" fill-rule="evenodd"></path><path fill="#cfe2f3" d="m893.51184 138.02625l13.905457 -13.055115l13.905518 13.055115l-13.905518 13.055115z" fill-rule="nonzero"></path><path stroke="#000000" stroke-width="1.0" stroke-linejoin="round" stroke-linecap="butt" d="m893.51184 138.02625l13.905457 -13.055115l13.905518 13.055115l-13.905518 13.055115z" fill-rule="nonzero"></path></g></svg>

